<svg width="54" height="54" fill="none" xmlns="http://www.w3.org/2000/svg"><g filter="url(#filter0_dd_12_663)"><path d="M3 26C3 12.745 13.745 2 27 2s24 10.745 24 24-10.745 24-24 24S3 39.255 3 26z" fill="#fff"/><path d="M32 20a1 1 0 110-2 1 1 0 010 2zm0 2a3 3 0 100-6 3 3 0 000 6zm-10-5a4 4 0 00-4 4v2h2v-2a2 2 0 012-2h3v-2h-3zm10 18a4 4 0 004-4v-2h-2v2a2 2 0 01-2 2h-3v2h3zm-9-8a1 1 0 10-2 0 1 1 0 002 0zm2 0a3 3 0 11-6 0 3 3 0 016 0zm7-2a2 2 0 00-2 2h-2a4 4 0 018 0h-2a2 2 0 00-2-2zM20 35a2 2 0 114 0h2a4 4 0 00-8 0h2z" fill="#4338CA"/></g><defs><filter id="filter0_dd_12_663" x="0" y="0" width="54" height="54" filterUnits="userSpaceOnUse" color-interpolation-filters="sRGB"><feFlood flood-opacity="0" result="BackgroundImageFix"/><feColorMatrix in="SourceAlpha" values="0 0 0 0 0 0 0 0 0 0 0 0 0 0 0 0 0 0 127 0" result="hardAlpha"/><feOffset dy="1"/><feGaussianBlur stdDeviation="1"/><feColorMatrix values="0 0 0 0 0 0 0 0 0 0 0 0 0 0 0 0 0 0 0.06 0"/><feBlend in2="BackgroundImageFix" result="effect1_dropShadow_12_663"/><feColorMatrix in="SourceAlpha" values="0 0 0 0 0 0 0 0 0 0 0 0 0 0 0 0 0 0 127 0" result="hardAlpha"/><feOffset dy="1"/><feGaussianBlur stdDeviation="1.5"/><feColorMatrix values="0 0 0 0 0 0 0 0 0 0 0 0 0 0 0 0 0 0 0.1 0"/><feBlend in2="effect1_dropShadow_12_663" result="effect2_dropShadow_12_663"/><feBlend in="SourceGraphic" in2="effect2_dropShadow_12_663" result="shape"/></filter></defs></svg>