<svg width="54" height="54" fill="none" xmlns="http://www.w3.org/2000/svg"><g filter="url(#filter0_dd_12_658)"><path d="M3 26C3 12.745 13.745 2 27 2s24 10.745 24 24-10.745 24-24 24S3 39.255 3 26z" fill="#fff"/><path d="M20.463 18.433A9.961 9.961 0 0127 16c5.523 0 10 4.477 10 10 0 2.136-.67 4.116-1.81 5.74L32 26h3a8 8 0 00-13.54-5.772l-.997-1.795zm13.074 15.134A9.961 9.961 0 0127 36c-5.523 0-10-4.477-10-10 0-2.136.67-4.116 1.81-5.74L22 26h-3a8 8 0 0013.54 5.772l.997 1.795z" fill="#4338CA"/></g><defs><filter id="filter0_dd_12_658" x="0" y="0" width="54" height="54" filterUnits="userSpaceOnUse" color-interpolation-filters="sRGB"><feFlood flood-opacity="0" result="BackgroundImageFix"/><feColorMatrix in="SourceAlpha" values="0 0 0 0 0 0 0 0 0 0 0 0 0 0 0 0 0 0 127 0" result="hardAlpha"/><feOffset dy="1"/><feGaussianBlur stdDeviation="1"/><feColorMatrix values="0 0 0 0 0 0 0 0 0 0 0 0 0 0 0 0 0 0 0.06 0"/><feBlend in2="BackgroundImageFix" result="effect1_dropShadow_12_658"/><feColorMatrix in="SourceAlpha" values="0 0 0 0 0 0 0 0 0 0 0 0 0 0 0 0 0 0 127 0" result="hardAlpha"/><feOffset dy="1"/><feGaussianBlur stdDeviation="1.5"/><feColorMatrix values="0 0 0 0 0 0 0 0 0 0 0 0 0 0 0 0 0 0 0.1 0"/><feBlend in2="effect1_dropShadow_12_658" result="effect2_dropShadow_12_658"/><feBlend in="SourceGraphic" in2="effect2_dropShadow_12_658" result="shape"/></filter></defs></svg>