<svg width="54" height="54" fill="none" xmlns="http://www.w3.org/2000/svg"><g filter="url(#filter0_dd_12_653)"><path d="M3 26C3 12.745 13.745 2 27 2s24 10.745 24 24-10.745 24-24 24S3 39.255 3 26z" fill="#fff"/><path d="M30.456 23.675l-.142-.142a5.476 5.476 0 00-2.39-1.349c-2.907-.779-5.699.869-6.492 3.83-.043.16-.066.34-.104.791-.154 1.87-.593 3.265-1.8 4.68 2.26.888 4.938 1.513 6.974 1.513a5.505 5.505 0 005.31-4.078 5.497 5.497 0 00-1.356-5.245zm-2.167-3.462l4.939-3.842a1 1 0 011.32.082l2.995 2.995a1 1 0 01.082 1.32l-3.84 4.939a7.505 7.505 0 01-7.283 9.292C23 34.998 18.5 33.496 16 31.996c3.98-3 3.047-4.81 3.5-6.5 1.058-3.95 4.842-6.258 8.789-5.284zM31.7 22.09c.066.064.13.128.194.194l1.135 1.135 2.475-3.182-1.746-1.746-3.182 2.475 1.124 1.125z" fill="#4338CA"/></g><defs><filter id="filter0_dd_12_653" x="0" y="0" width="54" height="54" filterUnits="userSpaceOnUse" color-interpolation-filters="sRGB"><feFlood flood-opacity="0" result="BackgroundImageFix"/><feColorMatrix in="SourceAlpha" values="0 0 0 0 0 0 0 0 0 0 0 0 0 0 0 0 0 0 127 0" result="hardAlpha"/><feOffset dy="1"/><feGaussianBlur stdDeviation="1"/><feColorMatrix values="0 0 0 0 0 0 0 0 0 0 0 0 0 0 0 0 0 0 0.06 0"/><feBlend in2="BackgroundImageFix" result="effect1_dropShadow_12_653"/><feColorMatrix in="SourceAlpha" values="0 0 0 0 0 0 0 0 0 0 0 0 0 0 0 0 0 0 127 0" result="hardAlpha"/><feOffset dy="1"/><feGaussianBlur stdDeviation="1.5"/><feColorMatrix values="0 0 0 0 0 0 0 0 0 0 0 0 0 0 0 0 0 0 0.1 0"/><feBlend in2="effect1_dropShadow_12_653" result="effect2_dropShadow_12_653"/><feBlend in="SourceGraphic" in2="effect2_dropShadow_12_653" result="shape"/></filter></defs></svg>