<svg width="54" height="54" fill="none" xmlns="http://www.w3.org/2000/svg"><g filter="url(#filter0_dd_12_662)"><path d="M3 26C3 12.745 13.745 2 27 2s24 10.745 24 24-10.745 24-24 24S3 39.255 3 26z" fill="#fff"/><path d="M30.502 34.005A6.522 6.522 0 0127 37.507a6.522 6.522 0 01-3.502-3.502h2.26c.326.488.747.912 1.242 1.243.495-.33.916-.755 1.242-1.243h2.26zM33 28.809l2 2.269v1.927H19v-1.927l2-2.268v-5.805c0-3.483 2.504-6.447 6-7.545 3.496 1.098 6 4.061 6 7.545v5.805zm-.73 2.196L31 29.565v-6.56c0-2.318-1.57-4.43-4-5.421-2.43.99-4 3.103-4 5.42v6.561l-1.27 1.44h10.54zm-5.27-6a2 2 0 110-4 2 2 0 010 4z" fill="#4338CA"/></g><defs><filter id="filter0_dd_12_662" x="0" y="0" width="54" height="54" filterUnits="userSpaceOnUse" color-interpolation-filters="sRGB"><feFlood flood-opacity="0" result="BackgroundImageFix"/><feColorMatrix in="SourceAlpha" values="0 0 0 0 0 0 0 0 0 0 0 0 0 0 0 0 0 0 127 0" result="hardAlpha"/><feOffset dy="1"/><feGaussianBlur stdDeviation="1"/><feColorMatrix values="0 0 0 0 0 0 0 0 0 0 0 0 0 0 0 0 0 0 0.06 0"/><feBlend in2="BackgroundImageFix" result="effect1_dropShadow_12_662"/><feColorMatrix in="SourceAlpha" values="0 0 0 0 0 0 0 0 0 0 0 0 0 0 0 0 0 0 127 0" result="hardAlpha"/><feOffset dy="1"/><feGaussianBlur stdDeviation="1.5"/><feColorMatrix values="0 0 0 0 0 0 0 0 0 0 0 0 0 0 0 0 0 0 0.1 0"/><feBlend in2="effect1_dropShadow_12_662" result="effect2_dropShadow_12_662"/><feBlend in="SourceGraphic" in2="effect2_dropShadow_12_662" result="shape"/></filter></defs></svg>