<svg width="54" height="54" fill="none" xmlns="http://www.w3.org/2000/svg"><g filter="url(#filter0_dd_12_661)"><path d="M3 26C3 12.745 13.745 2 27 2s24 10.745 24 24-10.745 24-24 24S3 39.255 3 26z" fill="#fff"/><path d="M27 18c6.075 0 11 4.925 11 11v5h-2v-5a9 9 0 00-8.735-8.996L27 20a9 9 0 00-8.996 8.735L18 29v5h-2v-5c0-6.075 4.925-11 11-11zm0 4a7 7 0 017 7v5h-2v-5a5 5 0 00-4.783-4.995L27 24a5 5 0 00-4.995 4.783L22 29v5h-2v-5a7 7 0 017-7zm0 4a3 3 0 013 3v5h-2v-5a1 1 0 00-.883-.993L27 28a1 1 0 00-.993.883L26 29v5h-2v-5a3 3 0 013-3z" fill="#4338CA"/></g><defs><filter id="filter0_dd_12_661" x="0" y="0" width="54" height="54" filterUnits="userSpaceOnUse" color-interpolation-filters="sRGB"><feFlood flood-opacity="0" result="BackgroundImageFix"/><feColorMatrix in="SourceAlpha" values="0 0 0 0 0 0 0 0 0 0 0 0 0 0 0 0 0 0 127 0" result="hardAlpha"/><feOffset dy="1"/><feGaussianBlur stdDeviation="1"/><feColorMatrix values="0 0 0 0 0 0 0 0 0 0 0 0 0 0 0 0 0 0 0.06 0"/><feBlend in2="BackgroundImageFix" result="effect1_dropShadow_12_661"/><feColorMatrix in="SourceAlpha" values="0 0 0 0 0 0 0 0 0 0 0 0 0 0 0 0 0 0 127 0" result="hardAlpha"/><feOffset dy="1"/><feGaussianBlur stdDeviation="1.5"/><feColorMatrix values="0 0 0 0 0 0 0 0 0 0 0 0 0 0 0 0 0 0 0.1 0"/><feBlend in2="effect1_dropShadow_12_661" result="effect2_dropShadow_12_661"/><feBlend in="SourceGraphic" in2="effect2_dropShadow_12_661" result="shape"/></filter></defs></svg>