<svg width="54" height="54" fill="none" xmlns="http://www.w3.org/2000/svg"><g filter="url(#filter0_dd_12_657)"><path d="M3 26C3 12.745 13.745 2 27 2s24 10.745 24 24-10.745 24-24 24S3 39.255 3 26z" fill="#fff"/><path d="M27 25a5 5 0 015 5v6h-2v-6a3 3 0 00-2.824-2.995L27 27a3 3 0 00-2.995 2.824L24 30v6h-2v-6a5 5 0 015-5zm-6.5 3c.279 0 .55.033.81.094a5.944 5.944 0 00-.301 1.575L21 30v.086a1.493 1.493 0 00-.355-.08L20.5 30a1.5 1.5 0 00-1.493 1.355L19 31.5V36h-2v-4.5a3.5 3.5 0 013.5-3.5zm13 0a3.5 3.5 0 013.5 3.5V36h-2v-4.5a1.5 1.5 0 00-1.355-1.493L33.5 30c-.175 0-.343.03-.5.085V30c0-.666-.108-1.306-.309-1.904A3.42 3.42 0 0133.5 28zm-13-6a2.5 2.5 0 110 5 2.5 2.5 0 010-5zm13 0a2.5 2.5 0 110 5 2.5 2.5 0 010-5zm-13 2a.5.5 0 100 1 .5.5 0 000-1zm13 0a.5.5 0 100 1 .5.5 0 000-1zM27 16a4 4 0 110 8 4 4 0 010-8zm0 2a2 2 0 100 4 2 2 0 000-4z" fill="#4338CA"/></g><defs><filter id="filter0_dd_12_657" x="0" y="0" width="54" height="54" filterUnits="userSpaceOnUse" color-interpolation-filters="sRGB"><feFlood flood-opacity="0" result="BackgroundImageFix"/><feColorMatrix in="SourceAlpha" values="0 0 0 0 0 0 0 0 0 0 0 0 0 0 0 0 0 0 127 0" result="hardAlpha"/><feOffset dy="1"/><feGaussianBlur stdDeviation="1"/><feColorMatrix values="0 0 0 0 0 0 0 0 0 0 0 0 0 0 0 0 0 0 0.06 0"/><feBlend in2="BackgroundImageFix" result="effect1_dropShadow_12_657"/><feColorMatrix in="SourceAlpha" values="0 0 0 0 0 0 0 0 0 0 0 0 0 0 0 0 0 0 127 0" result="hardAlpha"/><feOffset dy="1"/><feGaussianBlur stdDeviation="1.5"/><feColorMatrix values="0 0 0 0 0 0 0 0 0 0 0 0 0 0 0 0 0 0 0.1 0"/><feBlend in2="effect1_dropShadow_12_657" result="effect2_dropShadow_12_657"/><feBlend in="SourceGraphic" in2="effect2_dropShadow_12_657" result="shape"/></filter></defs></svg>