<svg width="54" height="54" fill="none" xmlns="http://www.w3.org/2000/svg"><g filter="url(#filter0_dd_12_664)"><path d="M3 26C3 12.745 13.745 2 27 2s24 10.745 24 24-10.745 24-24 24S3 39.255 3 26z" fill="#fff"/><path d="M27 18a8 8 0 00-8 8h3a2 2 0 012 2v5a2 2 0 01-2 2h-3a2 2 0 01-2-2v-7c0-5.523 4.477-10 10-10s10 4.477 10 10v7a2 2 0 01-2 2h-3a2 2 0 01-2-2v-5a2 2 0 012-2h3a8 8 0 00-8-8zm-8 10v5h3v-5h-3zm13 0v5h3v-5h-3z" fill="#4338CA"/></g><defs><filter id="filter0_dd_12_664" x="0" y="0" width="54" height="54" filterUnits="userSpaceOnUse" color-interpolation-filters="sRGB"><feFlood flood-opacity="0" result="BackgroundImageFix"/><feColorMatrix in="SourceAlpha" values="0 0 0 0 0 0 0 0 0 0 0 0 0 0 0 0 0 0 127 0" result="hardAlpha"/><feOffset dy="1"/><feGaussianBlur stdDeviation="1"/><feColorMatrix values="0 0 0 0 0 0 0 0 0 0 0 0 0 0 0 0 0 0 0.06 0"/><feBlend in2="BackgroundImageFix" result="effect1_dropShadow_12_664"/><feColorMatrix in="SourceAlpha" values="0 0 0 0 0 0 0 0 0 0 0 0 0 0 0 0 0 0 127 0" result="hardAlpha"/><feOffset dy="1"/><feGaussianBlur stdDeviation="1.5"/><feColorMatrix values="0 0 0 0 0 0 0 0 0 0 0 0 0 0 0 0 0 0 0.1 0"/><feBlend in2="effect1_dropShadow_12_664" result="effect2_dropShadow_12_664"/><feBlend in="SourceGraphic" in2="effect2_dropShadow_12_664" result="shape"/></filter></defs></svg>