<svg width="54" height="54" fill="none" xmlns="http://www.w3.org/2000/svg"><g filter="url(#filter0_dd_12_660)"><path d="M3 26C3 12.745 13.745 2 27 2s24 10.745 24 24-10.745 24-24 24S3 39.255 3 26z" fill="#fff"/><path d="M22.05 22.047l4.95-4.95 4.95 4.95a7 7 0 11-9.9 0zm11.314-1.415L27 14.27l-6.364 6.364a9 9 0 1012.728 0zm-2.121 3.54l-1.415-1.415-7.07 7.071 1.414 1.415 7.07-7.072zm-8.132 1.06a1.5 1.5 0 102.121-2.121 1.5 1.5 0 00-2.121 2.121zm7.778 5.657a1.5 1.5 0 11-2.121-2.121 1.5 1.5 0 012.121 2.12z" fill="#4338CA"/></g><defs><filter id="filter0_dd_12_660" x="0" y="0" width="54" height="54" filterUnits="userSpaceOnUse" color-interpolation-filters="sRGB"><feFlood flood-opacity="0" result="BackgroundImageFix"/><feColorMatrix in="SourceAlpha" values="0 0 0 0 0 0 0 0 0 0 0 0 0 0 0 0 0 0 127 0" result="hardAlpha"/><feOffset dy="1"/><feGaussianBlur stdDeviation="1"/><feColorMatrix values="0 0 0 0 0 0 0 0 0 0 0 0 0 0 0 0 0 0 0.06 0"/><feBlend in2="BackgroundImageFix" result="effect1_dropShadow_12_660"/><feColorMatrix in="SourceAlpha" values="0 0 0 0 0 0 0 0 0 0 0 0 0 0 0 0 0 0 127 0" result="hardAlpha"/><feOffset dy="1"/><feGaussianBlur stdDeviation="1.5"/><feColorMatrix values="0 0 0 0 0 0 0 0 0 0 0 0 0 0 0 0 0 0 0.1 0"/><feBlend in2="effect1_dropShadow_12_660" result="effect2_dropShadow_12_660"/><feBlend in="SourceGraphic" in2="effect2_dropShadow_12_660" result="shape"/></filter></defs></svg>