<svg width="54" height="54" fill="none" xmlns="http://www.w3.org/2000/svg"><g filter="url(#filter0_dd_12_656)"><path d="M3 26C3 12.745 13.745 2 27 2s24 10.745 24 24-10.745 24-24 24S3 39.255 3 26z" fill="#fff"/><path d="M27.005 16c5.523 0 10 4.477 10 10s-4.477 10-10 10a9.96 9.96 0 01-6.383-2.301l-.244-.21.901-1.901a8 8 0 10-2.27-5.837l-.004.249h2.5l-2.706 5.716A9.955 9.955 0 0117.005 26c0-5.523 4.477-10 10-10zm1 4v2h2.5v2h-5.5a.5.5 0 00-.09.992l.09.008h4a2.5 2.5 0 010 5h-1v2h-2v-2h-2.5v-2h5.5a.5.5 0 00.09-.992l-.09-.008h-4a2.5 2.5 0 010-5h1v-2h2z" fill="#4338CA"/></g><defs><filter id="filter0_dd_12_656" x="0" y="0" width="54" height="54" filterUnits="userSpaceOnUse" color-interpolation-filters="sRGB"><feFlood flood-opacity="0" result="BackgroundImageFix"/><feColorMatrix in="SourceAlpha" values="0 0 0 0 0 0 0 0 0 0 0 0 0 0 0 0 0 0 127 0" result="hardAlpha"/><feOffset dy="1"/><feGaussianBlur stdDeviation="1"/><feColorMatrix values="0 0 0 0 0 0 0 0 0 0 0 0 0 0 0 0 0 0 0.06 0"/><feBlend in2="BackgroundImageFix" result="effect1_dropShadow_12_656"/><feColorMatrix in="SourceAlpha" values="0 0 0 0 0 0 0 0 0 0 0 0 0 0 0 0 0 0 127 0" result="hardAlpha"/><feOffset dy="1"/><feGaussianBlur stdDeviation="1.5"/><feColorMatrix values="0 0 0 0 0 0 0 0 0 0 0 0 0 0 0 0 0 0 0.1 0"/><feBlend in2="effect1_dropShadow_12_656" result="effect2_dropShadow_12_656"/><feBlend in="SourceGraphic" in2="effect2_dropShadow_12_656" result="shape"/></filter></defs></svg>