<svg width="54" height="54" fill="none" xmlns="http://www.w3.org/2000/svg"><g filter="url(#filter0_dd_12_659)"><path d="M3 26C3 12.745 13.745 2 27 2s24 10.745 24 24-10.745 24-24 24S3 39.255 3 26z" fill="#fff"/><path d="M19 19v14h16V19H19zm-1-2h18a1 1 0 011 1v16a1 1 0 01-1 1H18a1 1 0 01-1-1V18a1 1 0 011-1zm4.5 8.25h2V23H26v6h-1.5v-2.25h-2V29H21v-6h1.5v2.25zm7-.75v3H31a.5.5 0 00.5-.5v-2a.5.5 0 00-.5-.5h-1.5zM28 23h3a2 2 0 012 2v2a2 2 0 01-2 2h-3v-6z" fill="#4338CA"/></g><defs><filter id="filter0_dd_12_659" x="0" y="0" width="54" height="54" filterUnits="userSpaceOnUse" color-interpolation-filters="sRGB"><feFlood flood-opacity="0" result="BackgroundImageFix"/><feColorMatrix in="SourceAlpha" values="0 0 0 0 0 0 0 0 0 0 0 0 0 0 0 0 0 0 127 0" result="hardAlpha"/><feOffset dy="1"/><feGaussianBlur stdDeviation="1"/><feColorMatrix values="0 0 0 0 0 0 0 0 0 0 0 0 0 0 0 0 0 0 0.06 0"/><feBlend in2="BackgroundImageFix" result="effect1_dropShadow_12_659"/><feColorMatrix in="SourceAlpha" values="0 0 0 0 0 0 0 0 0 0 0 0 0 0 0 0 0 0 127 0" result="hardAlpha"/><feOffset dy="1"/><feGaussianBlur stdDeviation="1.5"/><feColorMatrix values="0 0 0 0 0 0 0 0 0 0 0 0 0 0 0 0 0 0 0.1 0"/><feBlend in2="effect1_dropShadow_12_659" result="effect2_dropShadow_12_659"/><feBlend in="SourceGraphic" in2="effect2_dropShadow_12_659" result="shape"/></filter></defs></svg>